# Blender v2.79 (sub 0) OBJ File: 'Mountains.blend'
# www.blender.org
mtllib Mountains.mtl
o LowPolyRock
v 4.385812 1.136002 0.202268
v 4.597517 3.765294 0.441569
v -0.889924 1.470121 -2.354083
v 0.090553 0.128293 -4.868526
v 0.097320 4.581810 -2.342854
v 1.891804 5.600013 3.271110
v 4.338617 0.344209 -3.249802
v 0.653536 2.620252 1.747876
v 1.115014 0.032448 2.395168
v 4.348670 4.372006 -1.993213
v 3.488171 2.962170 -3.914471
v 2.119048 4.197434 -4.389121
v -0.847068 0.948806 -0.331795
v 1.681597 1.444878 2.097718
v 5.521063 0.856114 -2.002306
v 4.292440 0.049202 -0.957742
v 5.311270 1.166425 -2.559107
v 1.112167 1.186766 -5.071304
v 2.863539 6.010155 -0.775997
v 1.398546 3.321592 -4.541474
v -0.145416 4.076640 -0.369581
v 2.234652 7.635040 2.959456
v -0.393965 0.285502 -4.186849
v 1.802131 3.327188 2.877476
v -0.574393 0.068031 -1.374063
v 3.065129 0.527396 3.084241
v 3.166351 1.784529 3.198656
v 0.542661 0.687147 1.861982
v 1.011453 0.045584 0.659761
v 1.014688 2.174927 1.867351
v 1.872678 2.661757 4.551534
v 3.042564 0.148819 1.433715
v 1.280630 1.237055 3.823236
v 1.501275 -0.000242 4.132723
v 3.047370 2.074614 2.034523
v 2.635943 1.400535 1.115920
v 1.981329 1.991147 0.888977
v 0.563152 0.437893 2.828891
v 1.772172 0.675077 3.990504
v 3.607922 0.393574 2.030176
v 3.020485 0.007768 2.529609
v 3.507614 0.541942 1.763954
v 1.499913 0.551668 0.562807
v 2.337290 2.857856 2.616506
v 1.636839 1.572384 0.816133
v 0.898630 1.933392 2.810824
v 2.036603 3.634757 4.402524
v 0.779792 0.120749 0.985689
v 1.829803 1.575059 4.363327
v 0.693525 0.016771 2.330555
vn 0.7674 0.6362 0.0801
vn 0.8147 0.5693 -0.1105
vn 0.5084 -0.3571 0.7836
vn 0.5688 -0.0554 0.8206
vn 0.8774 -0.1131 0.4662
vn -0.9677 -0.2482 -0.0435
vn -0.8674 0.2767 -0.4136
vn 0.6323 0.4618 -0.6221
vn 0.4488 0.7583 -0.4729
vn -0.4279 -0.8986 -0.0969
vn 0.9334 0.3117 -0.1780
vn 0.7497 0.3267 -0.5755
vn 0.3339 -0.4779 -0.8125
vn -0.6649 -0.1019 0.7399
vn -0.8637 0.1993 0.4630
vn -0.8115 0.0015 0.5844
vn -0.0662 0.2310 0.9707
vn 0.7360 -0.4343 -0.5194
vn 0.4840 -0.8691 -0.1021
vn -0.7286 -0.6052 0.3208
vn -0.9651 0.2613 0.0189
vn -0.1037 0.2527 -0.9620
vn -0.4502 0.2715 -0.8507
vn 0.7180 -0.0144 0.6959
vn -0.5382 0.5533 -0.6357
vn 0.5699 -0.6221 0.5369
vn 0.9485 0.3163 -0.0181
vn 0.0343 -0.9978 -0.0570
vn -0.9583 -0.2734 -0.0826
vn -0.5475 0.8014 -0.2408
vn 0.4435 -0.0095 -0.8962
vn -0.2333 0.8876 -0.3972
vn 0.5872 -0.0147 -0.8093
vn -0.8886 0.1780 0.4227
vn -0.5801 -0.2797 0.7650
vn 0.6629 -0.1358 0.7363
vn 0.7235 -0.5319 0.4401
vn -0.0032 -1.0000 -0.0080
vn -0.7073 0.3456 -0.6167
vn -0.7209 0.3562 -0.5945
usemtl Material.001
s off
f 2//1 10//1 19//1
f 19//2 22//2 2//2
f 24//3 14//3 1//3
f 14//4 9//4 1//4
f 2//5 1//5 15//5
f 25//6 13//6 3//6
f 3//7 5//7 23//7
f 10//8 11//8 12//8
f 10//9 12//9 19//9
f 4//10 25//10 23//10
f 10//11 15//11 17//11
f 11//12 10//12 17//12
f 4//13 18//13 7//13
f 8//14 24//14 6//14
f 8//15 21//15 13//15
f 13//16 9//16 8//16
f 9//17 14//17 8//17
f 7//18 17//18 15//18
f 16//19 7//19 15//19
f 9//20 13//20 25//20
f 5//21 3//21 13//21 21//21
f 20//22 12//22 18//22
f 18//23 4//23 20//23
f 6//24 2//24 22//24
f 5//25 12//25 20//25
f 1//26 9//26 16//26
f 2//27 15//27 10//27
f 16//28 25//28 4//28 7//28
f 3//29 23//29 25//29
f 19//30 5//30 21//30 22//30
f 18//31 12//31 11//31 7//31
f 19//32 12//32 5//32
f 11//33 17//33 7//33
f 21//34 8//34 6//34 22//34
f 8//35 14//35 24//35
f 2//36 6//36 24//36 1//36
f 15//37 1//37 16//37
f 9//38 25//38 16//38
f 20//39 23//39 5//39
f 20//40 4//40 23//40
f 27//1 35//1 44//1
f 44//2 47//2 27//2
f 49//3 39//3 26//3
f 39//4 34//4 26//4
f 27//5 26//5 40//5
f 50//6 38//6 28//6
f 28//7 30//7 48//7
f 35//8 36//8 37//8
f 35//9 37//9 44//9
f 29//10 50//10 48//10
f 35//11 40//11 42//11
f 36//12 35//12 42//12
f 29//13 43//13 32//13
f 33//14 49//14 31//14
f 33//15 46//15 38//15
f 38//16 34//16 33//16
f 34//17 39//17 33//17
f 32//18 42//18 40//18
f 41//19 32//19 40//19
f 34//20 38//20 50//20
f 30//21 28//21 38//21 46//21
f 45//22 37//22 43//22
f 43//23 29//23 45//23
f 31//24 27//24 47//24
f 30//25 37//25 45//25
f 26//26 34//26 41//26
f 27//27 40//27 35//27
f 41//28 50//28 29//28 32//28
f 28//29 48//29 50//29
f 44//30 30//30 46//30 47//30
f 43//31 37//31 36//31 32//31
f 44//32 37//32 30//32
f 36//33 42//33 32//33
f 46//34 33//34 31//34 47//34
f 33//35 39//35 49//35
f 27//36 31//36 49//36 26//36
f 40//37 26//37 41//37
f 34//38 50//38 41//38
f 45//39 48//39 30//39
f 45//40 29//40 48//40
