# Blender v2.79 (sub 0) OBJ File: 'Rocks.blend'
# www.blender.org
mtllib Rocks.mtl
o LowPolyRock.003
v 2.772702 0.310532 0.556730
v 4.243174 -0.281338 -0.167817
v 3.681195 0.101660 0.783075
v 2.767820 0.033409 0.383106
v 3.095858 0.490082 -0.234022
v 2.993114 0.473173 -0.219849
v 3.997667 0.315104 -0.442994
v 3.542558 0.311236 -0.741958
v 2.943238 0.434173 -0.222281
v 2.902680 0.378846 -0.008321
v 2.849751 0.340706 0.232184
v 3.524465 0.534323 0.191508
v 3.418022 0.483607 0.529635
v 2.815801 0.362816 0.573727
v 2.927598 0.369119 0.654086
v 3.992749 0.423097 -0.031302
v 4.238721 0.267802 0.163983
v 4.216086 0.255420 0.259158
v 4.252113 0.097326 -0.352777
v 2.949469 0.092806 -0.598550
v 2.882641 0.330189 0.664565
v 3.341010 0.013834 0.781166
v 4.270351 0.160120 0.551528
v 4.287817 0.179407 0.422034
v 4.274024 0.157060 0.286521
v 3.713447 -0.248644 -0.873604
v 2.945085 -0.018398 -0.611065
v 2.955344 -0.303733 -0.702114
v 2.949291 -0.339487 -0.634226
v 4.124017 0.047822 0.648422
v 3.770664 -0.265329 0.683105
v 4.278180 -0.218658 -0.149215
v 3.096554 -0.382341 -0.725685
v 2.858652 -0.302501 -0.091393
v 2.826445 -0.326861 0.037317
v 3.233325 -0.485546 0.153718
v 3.853302 -0.493758 0.221935
v 3.749817 -0.522204 0.155240
v 3.574800 -0.267140 0.705455
v 3.767969 -0.309713 0.643618
v 2.815801 0.362816 0.573727
v 2.815801 0.362816 0.573727
v 2.815801 0.362816 0.573727
v 2.772702 0.310532 0.556730
v 2.772702 0.310532 0.556730
v 2.772702 0.310532 0.556730
v 3.095858 0.490082 -0.234022
v 3.095858 0.490082 -0.234022
v 2.993114 0.473173 -0.219849
v 2.993114 0.473173 -0.219849
v 3.992749 0.423097 -0.031302
v 3.992749 0.423097 -0.031302
v 3.997667 0.315104 -0.442994
v 3.997667 0.315104 -0.442994
v 3.542558 0.311236 -0.741958
v 3.542558 0.311236 -0.741958
v 3.542558 0.311236 -0.741958
v 2.943238 0.434173 -0.222281
v 2.943238 0.434173 -0.222281
v 2.902680 0.378846 -0.008321
v 2.902680 0.378846 -0.008321
v 2.849751 0.340706 0.232184
v 2.849751 0.340706 0.232184
v 2.949469 0.092806 -0.598550
v 2.949469 0.092806 -0.598550
v 3.524465 0.534323 0.191508
v 3.524465 0.534323 0.191508
v 3.418022 0.483607 0.529635
v 3.418022 0.483607 0.529635
v 2.927598 0.369119 0.654086
v 2.927598 0.369119 0.654086
v 2.927598 0.369119 0.654086
v 4.238721 0.267802 0.163983
v 4.238721 0.267802 0.163983
v 4.238721 0.267802 0.163983
v 4.216086 0.255420 0.259158
v 4.216086 0.255420 0.259158
v 4.252113 0.097326 -0.352777
v 4.252113 0.097326 -0.352777
v 4.252113 0.097326 -0.352777
v 2.882641 0.330189 0.664565
v 2.882641 0.330189 0.664565
v 2.882641 0.330189 0.664565
v 3.341010 0.013834 0.781166
v 3.341010 0.013834 0.781166
v 3.681195 0.101660 0.783075
v 3.681195 0.101660 0.783075
v 4.124017 0.047822 0.648422
v 4.124017 0.047822 0.648422
v 4.270351 0.160120 0.551528
v 4.270351 0.160120 0.551528
v 4.270351 0.160120 0.551528
v 4.287817 0.179407 0.422034
v 4.287817 0.179407 0.422034
v 4.274024 0.157060 0.286521
v 4.274024 0.157060 0.286521
v 3.713447 -0.248644 -0.873604
v 3.713447 -0.248644 -0.873604
v 3.713447 -0.248644 -0.873604
v 2.945085 -0.018398 -0.611065
v 2.955344 -0.303733 -0.702114
v 2.955344 -0.303733 -0.702114
v 2.949291 -0.339487 -0.634226
v 2.949291 -0.339487 -0.634226
v 3.096554 -0.382341 -0.725685
v 3.096554 -0.382341 -0.725685
v 3.096554 -0.382341 -0.725685
v 2.767820 0.033409 0.383106
v 2.826445 -0.326861 0.037317
v 2.826445 -0.326861 0.037317
v 3.574800 -0.267140 0.705455
v 3.574800 -0.267140 0.705455
v 3.574800 -0.267140 0.705455
v 3.770664 -0.265329 0.683105
v 3.770664 -0.265329 0.683105
v 3.767969 -0.309713 0.643618
v 3.767969 -0.309713 0.643618
v 4.278180 -0.218658 -0.149215
v 4.278180 -0.218658 -0.149215
v 4.243174 -0.281338 -0.167817
v 4.243174 -0.281338 -0.167817
v 2.858652 -0.302501 -0.091393
v 3.233325 -0.485546 0.153718
v 3.233325 -0.485546 0.153718
v 3.749817 -0.522204 0.155240
v 3.749817 -0.522204 0.155240
v 3.853302 -0.493758 0.221935
v 3.853302 -0.493758 0.221935
vn -0.9810 0.0833 -0.1753
vn 0.6574 0.7252 -0.2045
vn 0.1296 0.9640 -0.2322
vn 0.1713 0.5949 0.7853
vn -0.6163 0.7828 0.0856
vn 0.3451 0.9066 0.2427
vn -0.0606 -0.9138 0.4015
vn 0.9972 0.0691 -0.0290
vn -0.0663 0.2667 0.9615
vn -0.6854 0.3591 0.6334
vn -0.4534 0.6790 0.5774
vn 0.7582 -0.3005 -0.5786
vn -0.2624 0.1610 -0.9514
vn 0.8692 0.4660 -0.1653
vn 0.7984 0.5428 0.2605
vn 0.5285 0.3307 -0.7818
vn -0.2269 -0.9703 -0.0833
vn -0.4917 -0.7515 -0.4396
vn -0.4831 -0.6101 0.6280
vn 0.0907 -0.6650 0.7413
vn -0.2525 0.9644 0.0788
vn 0.6866 -0.6241 0.3728
vn -0.7474 0.6540 -0.1166
vn 0.2168 -0.9430 -0.2525
vn -0.3815 0.6948 -0.6096
vn 0.1631 -0.2117 0.9636
usemtl Rock_4
s 1
f 62//1 61//1 59//1 64//1 100//1 101//1 103//1 122//1 109//1 108//1 45//1
f 73//2 78//2 53//2 51//2
f 66//3 52//3 54//3 55//3 48//3
f 71//4 86//4 88//4 90//4 69//4
f 50//5 58//5 60//5
f 16//6 67//6 68//6 91//6 93//6 76//6 74//6
f 113//7 124//7 126//7 127//7 117//7
f 118//8 80//8 75//8 95//8 94//8 92//8
f 87//9 72//9 81//9 84//9
f 44//10 82//10 41//10
f 83//11 70//11 43//11
f 79//12 119//12 120//12 97//12
f 102//13 27//13 65//13 56//13 98//13 105//13
f 24//14 96//14 77//14
f 25//15 17//15 18//15
f 7//16 19//16 99//16 8//16
f 34//17 104//17 106//17 125//17 123//17 110//17
f 33//18 29//18 28//18
f 21//19 1//19 4//19 35//19 36//19 112//19 85//19
f 111//20 116//20 114//20
f 47//21 49//21 10//21 63//21 42//21 15//21 13//21 12//21
f 23//22 89//22 115//22 40//22 128//22 121//22 32//22
f 14//23 11//23 46//23
f 26//24 2//24 37//24 38//24 107//24
f 6//25 5//25 57//25 20//25 9//25
f 22//26 39//26 31//26 30//26 3//26
o LowPolyRock.002
v -1.770718 -0.518816 -0.294903
v -2.139597 0.014587 0.318823
v -2.225163 0.180316 -0.225041
v -1.042790 0.422003 0.051750
v -1.594099 0.683159 -0.114761
v -1.796006 0.647897 0.004498
v -1.126071 0.542097 -0.220528
v -1.102797 0.477780 -0.201226
v -1.160188 0.411485 -0.284405
v -1.733742 0.512186 0.202181
v -2.066306 0.628646 -0.152637
v -2.093211 0.614823 -0.245736
v -2.187750 0.506674 -0.083843
v -2.227717 0.486770 -0.217933
v -2.227399 0.518142 -0.182473
v -1.795528 0.416116 0.278669
v -2.331717 -0.299456 0.023200
v -1.131376 0.098629 0.536180
v -1.073101 0.363596 0.264490
v -1.040973 0.160928 0.362406
v -1.028991 0.373612 0.173352
v -1.032455 0.051466 0.233637
v -1.385185 -0.012135 -0.589777
v -1.414488 -0.064346 -0.574159
v -1.380142 -0.176083 -0.528185
v -2.301165 -0.346939 -0.243583
v -2.361283 -0.323127 -0.086086
v -2.255608 -0.399506 -0.254368
v -2.295535 -0.378720 -0.123751
v -2.275136 -0.292328 0.375170
v -2.067036 -0.379604 0.495438
v -1.940033 -0.446071 0.548300
v -2.261503 -0.324136 0.190546
v -1.248385 -0.059817 0.583609
v -1.185790 -0.358061 -0.006749
v -1.732727 -0.386878 -0.476069
v -1.927222 -0.474259 -0.426976
v -1.965308 -0.485307 -0.383935
v -2.026253 -0.442133 0.438563
v -1.981404 -0.476285 0.526060
v -1.686279 -0.556347 0.389595
v -1.481081 -0.627112 0.352440
v -1.469428 -0.655338 0.303654
v -1.429497 -0.633040 0.316902
v -1.594099 0.683159 -0.114761
v -1.594099 0.683159 -0.114761
v -1.796006 0.647897 0.004498
v -1.796006 0.647897 0.004498
v -1.042790 0.422003 0.051750
v -1.126071 0.542097 -0.220528
v -1.126071 0.542097 -0.220528
v -1.126071 0.542097 -0.220528
v -1.102797 0.477780 -0.201226
v -1.102797 0.477780 -0.201226
v -1.160188 0.411485 -0.284405
v -1.160188 0.411485 -0.284405
v -1.733742 0.512186 0.202181
v -1.733742 0.512186 0.202181
v -2.093211 0.614823 -0.245736
v -2.093211 0.614823 -0.245736
v -2.093211 0.614823 -0.245736
v -2.093211 0.614823 -0.245736
v -2.066306 0.628646 -0.152637
v -2.066306 0.628646 -0.152637
v -1.385185 -0.012135 -0.589777
v -1.385185 -0.012135 -0.589777
v -1.385185 -0.012135 -0.589777
v -2.227717 0.486770 -0.217933
v -2.227717 0.486770 -0.217933
v -2.227399 0.518142 -0.182473
v -2.227399 0.518142 -0.182473
v -2.187750 0.506674 -0.083843
v -2.187750 0.506674 -0.083843
v -1.795528 0.416116 0.278669
v -1.795528 0.416116 0.278669
v -1.028991 0.373612 0.173352
v -1.028991 0.373612 0.173352
v -2.225163 0.180316 -0.225041
v -2.225163 0.180316 -0.225041
v -2.361283 -0.323127 -0.086086
v -2.361283 -0.323127 -0.086086
v -2.361283 -0.323127 -0.086086
v -2.331717 -0.299456 0.023200
v -2.331717 -0.299456 0.023200
v -2.139597 0.014587 0.318823
v -2.139597 0.014587 0.318823
v -1.131376 0.098629 0.536180
v -1.131376 0.098629 0.536180
v -1.131376 0.098629 0.536180
v -1.040973 0.160928 0.362406
v -1.040973 0.160928 0.362406
v -1.032455 0.051466 0.233637
v -1.032455 0.051466 0.233637
v -1.073101 0.363596 0.264490
v -1.073101 0.363596 0.264490
v -1.414488 -0.064346 -0.574159
v -1.414488 -0.064346 -0.574159
v -1.380142 -0.176083 -0.528185
v -1.380142 -0.176083 -0.528185
v -1.380142 -0.176083 -0.528185
v -1.732727 -0.386878 -0.476069
v -1.732727 -0.386878 -0.476069
v -2.301165 -0.346939 -0.243583
v -2.301165 -0.346939 -0.243583
v -2.301165 -0.346939 -0.243583
v -2.255608 -0.399506 -0.254368
v -2.255608 -0.399506 -0.254368
v -2.295535 -0.378720 -0.123751
v -2.295535 -0.378720 -0.123751
v -1.927222 -0.474259 -0.426976
v -1.927222 -0.474259 -0.426976
v -1.927222 -0.474259 -0.426976
v -2.275136 -0.292328 0.375170
v -2.275136 -0.292328 0.375170
v -2.275136 -0.292328 0.375170
v -2.275136 -0.292328 0.375170
v -2.067036 -0.379604 0.495438
v -2.067036 -0.379604 0.495438
v -2.261503 -0.324136 0.190546
v -2.261503 -0.324136 0.190546
v -2.026253 -0.442133 0.438563
v -2.026253 -0.442133 0.438563
v -1.981404 -0.476285 0.526060
v -1.981404 -0.476285 0.526060
v -1.981404 -0.476285 0.526060
v -1.248385 -0.059817 0.583609
v -1.248385 -0.059817 0.583609
v -1.940033 -0.446071 0.548300
v -1.940033 -0.446071 0.548300
v -1.185790 -0.358061 -0.006749
v -1.185790 -0.358061 -0.006749
v -1.770718 -0.518816 -0.294903
v -1.770718 -0.518816 -0.294903
v -1.965308 -0.485307 -0.383935
v -1.965308 -0.485307 -0.383935
v -1.686279 -0.556347 0.389595
v -1.686279 -0.556347 0.389595
v -1.469428 -0.655338 0.303654
v -1.469428 -0.655338 0.303654
v -1.429497 -0.633040 0.316902
v -1.429497 -0.633040 0.316902
v -1.429497 -0.633040 0.316902
v -1.481081 -0.627112 0.352440
v -1.481081 -0.627112 0.352440
vn -0.9510 0.2338 0.2023
vn 0.7811 0.0976 -0.6167
vn 0.2412 0.8778 0.4138
vn -0.3716 0.0832 -0.9246
vn 0.2031 -0.4895 0.8480
vn -0.6488 0.5728 -0.5009
vn -0.1151 0.9933 0.0054
vn -0.9168 0.1452 -0.3719
vn -0.5446 -0.7303 0.4124
vn -0.5409 -0.8346 0.1039
vn 0.0790 0.5701 -0.8177
vn -0.6487 -0.7250 0.2313
vn 0.8363 -0.4462 0.3187
vn 0.4160 -0.8025 -0.4276
vn -0.7213 -0.6771 -0.1457
vn -0.4943 -0.4386 -0.7505
vn 0.1203 -0.3459 -0.9305
vn 0.0638 0.6817 0.7288
vn -0.4606 0.6052 0.6493
vn -0.7630 -0.6298 0.1453
vn -0.5791 0.7925 0.1913
vn -0.2414 0.3352 0.9106
vn 0.9094 -0.1697 -0.3798
vn -0.0374 -0.9594 -0.2794
vn 0.7858 0.3656 0.4988
vn 0.1343 -0.7001 0.7013
vn 0.0771 -0.3590 -0.9301
vn 0.2727 -0.8031 0.5298
vn -0.3399 -0.9399 0.0329
vn 0.9900 -0.0257 -0.1390
usemtl Rock_1
s 1
f 200//27 198//27 196//27 206//27 208//27 211//27 242//27 213//27
f 181//28 183//28 179//28
f 173//29 175//29 185//29 223//29 204//29 177//29 178//29
f 197//30 188//30 193//30 224//30 229//30 238//30 232//30 207//30
f 255//31 256//31 264//31 271//31 269//31
f 142//32 199//32 189//32
f 176//33 174//33 187//33 191//33
f 231//34 209//34 131//34
f 245//35 241//35 249//35
f 247//36 243//36 212//36
f 194//37 190//37 133//37 180//37 184//37
f 237//38 248//38 145//38 210//38
f 258//39 221//39 218//39 215//39 254//39 270//39
f 230//40 227//40 259//40 268//40 266//40 260//40 239//40
f 236//41 155//41 233//41 234//41
f 263//42 235//42 154//42 240//42
f 226//43 225//43 195//43
f 202//44 216//44 222//44 186//44
f 201//45 214//45 203//45 138//45 134//45 192//45
f 250//46 251//46 246//46
f 143//47 141//47 139//47 140//47
f 130//48 244//48 159//48 252//48 257//48 162//48 217//48 144//48
f 182//49 220//49 163//49 228//49 151//49 137//49
f 261//50 262//50 165//50
f 219//51 205//51 147//51 146//51
f 265//52 160//52 253//52
f 153//53 164//53 152//53
f 267//54 172//54 272//54
f 168//55 167//55 158//55 161//55 157//55 156//55 166//55 129//55 171//55 170//55 169//55
f 150//56 136//56 135//56 132//56 149//56 148//56
o LowPolyRock.001
v 2.235292 -0.658207 -0.136733
v 2.235426 -0.732510 -0.045947
v 2.461415 0.051418 -0.301896
v 1.555555 -0.247123 0.774478
v 1.762763 0.749126 0.429952
v 1.852526 0.647570 0.605154
v 1.843310 0.726697 0.078810
v 1.592553 0.759088 -0.223466
v 1.675184 0.503322 -0.548167
v 1.360749 0.780850 -0.006153
v 1.336053 0.738491 0.069345
v 1.125492 0.527880 0.042672
v 1.628990 0.744259 0.317163
v 2.203437 -0.255044 -0.464278
v 1.385922 0.103179 -0.803100
v 1.568867 0.365437 -0.625347
v 1.340617 0.135748 -0.792833
v 1.320672 0.070250 -0.786124
v 0.833607 0.151341 -0.092046
v 0.879043 0.289462 0.039809
v 1.356156 0.085084 0.712865
v 1.525084 0.199067 0.758651
v 2.247797 0.357228 0.438330
v 2.230962 0.411990 0.320284
v 2.303610 0.305234 0.180075
v 2.326985 0.387001 0.135497
v 2.315041 0.353262 0.020260
v 1.551396 -0.108405 -0.739063
v 1.461127 -0.136215 -0.722561
v 0.950090 0.062340 -0.404151
v 1.718424 -0.291217 0.751108
v 1.425833 -0.459369 0.679708
v 2.170334 -0.374975 0.594057
v 2.354641 0.267642 -0.039115
v 2.452524 -0.117137 -0.323264
v 2.311810 -0.364296 -0.228953
v 1.335687 -0.793643 -0.181955
v 0.991720 -0.572124 -0.031032
v 1.489836 -0.943405 -0.044290
v 1.111919 -0.595975 0.155536
v 1.247077 -0.796956 0.371664
v 1.337384 -0.854703 0.334122
v 1.370759 -0.528966 0.588052
v 1.366491 -0.612894 0.529380
v 2.235292 -0.658207 -0.136733
v 2.235292 -0.658207 -0.136733
v 2.235426 -0.732510 -0.045947
v 2.235426 -0.732510 -0.045947
v 2.235426 -0.732510 -0.045947
v 2.315041 0.353262 0.020260
v 2.315041 0.353262 0.020260
v 2.303610 0.305234 0.180075
v 2.303610 0.305234 0.180075
v 2.303610 0.305234 0.180075
v 2.303610 0.305234 0.180075
v 2.452524 -0.117137 -0.323264
v 2.452524 -0.117137 -0.323264
v 2.461415 0.051418 -0.301896
v 2.461415 0.051418 -0.301896
v 1.335687 -0.793643 -0.181955
v 1.335687 -0.793643 -0.181955
v 1.461127 -0.136215 -0.722561
v 1.461127 -0.136215 -0.722561
v 1.551396 -0.108405 -0.739063
v 1.551396 -0.108405 -0.739063
v 1.762763 0.749126 0.429952
v 1.762763 0.749126 0.429952
v 1.852526 0.647570 0.605154
v 1.852526 0.647570 0.605154
v 1.592553 0.759088 -0.223466
v 1.592553 0.759088 -0.223466
v 1.675184 0.503322 -0.548167
v 1.675184 0.503322 -0.548167
v 1.843310 0.726697 0.078810
v 1.843310 0.726697 0.078810
v 1.568867 0.365437 -0.625347
v 1.568867 0.365437 -0.625347
v 1.360749 0.780850 -0.006153
v 1.360749 0.780850 -0.006153
v 1.360749 0.780850 -0.006153
v 1.336053 0.738491 0.069345
v 1.336053 0.738491 0.069345
v 1.125492 0.527880 0.042672
v 1.125492 0.527880 0.042672
v 1.628990 0.744259 0.317163
v 1.628990 0.744259 0.317163
v 2.326985 0.387001 0.135497
v 2.326985 0.387001 0.135497
v 2.326985 0.387001 0.135497
v 2.203437 -0.255044 -0.464278
v 2.203437 -0.255044 -0.464278
v 1.385922 0.103179 -0.803100
v 1.385922 0.103179 -0.803100
v 1.320672 0.070250 -0.786124
v 1.320672 0.070250 -0.786124
v 1.340617 0.135748 -0.792833
v 1.340617 0.135748 -0.792833
v 1.340617 0.135748 -0.792833
v 0.833607 0.151341 -0.092046
v 0.833607 0.151341 -0.092046
v 0.879043 0.289462 0.039809
v 0.879043 0.289462 0.039809
v 1.356156 0.085084 0.712865
v 1.356156 0.085084 0.712865
v 1.525084 0.199067 0.758651
v 1.525084 0.199067 0.758651
v 1.555555 -0.247123 0.774478
v 1.555555 -0.247123 0.774478
v 2.247797 0.357228 0.438330
v 2.247797 0.357228 0.438330
v 2.247797 0.357228 0.438330
v 2.230962 0.411990 0.320284
v 2.230962 0.411990 0.320284
v 0.950090 0.062340 -0.404151
v 0.950090 0.062340 -0.404151
v 0.950090 0.062340 -0.404151
v 0.991720 -0.572124 -0.031032
v 0.991720 -0.572124 -0.031032
v 0.991720 -0.572124 -0.031032
v 1.425833 -0.459369 0.679708
v 1.425833 -0.459369 0.679708
v 1.425833 -0.459369 0.679708
v 1.425833 -0.459369 0.679708
v 1.718424 -0.291217 0.751108
v 1.718424 -0.291217 0.751108
v 2.170334 -0.374975 0.594057
v 2.170334 -0.374975 0.594057
v 2.354641 0.267642 -0.039115
v 2.354641 0.267642 -0.039115
v 2.311810 -0.364296 -0.228953
v 2.311810 -0.364296 -0.228953
v 1.489836 -0.943405 -0.044290
v 1.489836 -0.943405 -0.044290
v 1.337384 -0.854703 0.334122
v 1.337384 -0.854703 0.334122
v 1.366491 -0.612894 0.529380
v 1.366491 -0.612894 0.529380
v 1.370759 -0.528966 0.588052
v 1.370759 -0.528966 0.588052
v 1.111919 -0.595975 0.155536
v 1.247077 -0.796956 0.371664
v 1.247077 -0.796956 0.371664
vn 0.0176 -0.4166 0.9089
vn -0.5594 0.5781 0.5940
vn -0.1117 -0.6038 0.7892
vn -0.8379 -0.1336 0.5293
vn 0.9657 -0.1116 0.2344
vn 0.1499 0.4809 -0.8638
vn 0.2493 -0.7943 0.5540
vn -0.9318 -0.2275 -0.2829
vn 0.4161 0.1765 -0.8920
vn -0.7084 0.6887 0.1546
vn 0.8762 0.4725 0.0942
vn 0.1475 -0.6412 -0.7531
vn 0.8872 -0.0021 0.4613
vn 0.9589 -0.2831 -0.0165
vn -0.5886 -0.4600 -0.6647
vn 0.5936 0.7917 0.1440
vn 0.9337 0.3190 0.1626
vn 0.5548 0.7280 -0.4026
vn 0.0915 0.9958 0.0057
vn -0.3346 0.8643 0.3754
vn 0.9104 -0.3195 -0.2628
vn -0.6465 -0.7620 -0.0363
vn -0.7115 0.1462 -0.6872
vn -0.0835 -0.3152 -0.9453
vn -0.3761 -0.0542 0.9250
vn -0.5721 -0.4502 0.6856
vn -0.5606 0.6556 -0.5059
vn 0.7005 -0.4672 -0.5395
vn 0.3620 0.1077 0.9259
usemtl Rock_3
s 1
f 392//57 396//57 380//57
f 377//58 340//58 338//58 357//58 354//58 355//58 374//58 375//58
f 407//59 408//59 410//59 414//59
f 371//60 389//60 412//60 413//60 411//60 393//60 376//60 373//60
f 328//61 330//61 400//61 326//61 383//61 398//61 320//61 402//61
f 365//62 368//62 349//62
f 397//63 394//63 409//63 406//63 405//63 321//63 399//63
f 372//64 386//64 391//64
f 364//65 348//65 345//65 331//65 329//65 363//65 337//65
f 350//66 356//66 353//66
f 381//67 327//67 384//67
f 334//68 336//68 362//68 317//68 319//68 404//68 332//68
f 325//69 360//69 385//69
f 324//70 322//70 361//70
f 387//71 366//71 335//71 333//71 390//71
f 341//72 382//72 296//72 359//72 347//72 339//72
f 297//73 401//73 323//73
f 298//74 299//74 306//74 275//74 344//74 342//74 346//74
f 279//75 343//75 351//75 358//75 277//75
f 283//76 285//76 282//76
f 274//77 318//77 403//77
f 313//78 312//78 310//78 309//78 311//78 314//78
f 367//79 388//79 369//79
f 301//80 290//80 289//80 287//80 300//80
f 293//81 395//81 379//81 378//81
f 316//82 304//82 315//82
f 280//83 281//83 288//83 370//83 302//83 291//83 292//83 284//83 352//83
f 273//84 286//84 307//84 308//84
f 295//85 278//85 294//85 276//85 303//85 305//85
o LowPolyRock
v 0.526578 -0.376944 0.054715
v -0.266466 -0.523342 0.008069
v -0.071445 -0.591033 0.002867
v -0.114843 -0.230543 0.612061
v -0.160476 -0.370709 0.604391
v 0.387526 -0.080879 0.362733
v -0.586133 -0.176879 0.084947
v -0.405378 -0.069287 -0.409348
v 0.114020 0.695820 0.253622
v 0.226200 0.679821 -0.097439
v -0.353926 0.474524 0.228931
v 0.005642 0.529670 -0.461245
v 0.086939 0.583360 -0.272955
v 0.400854 0.414600 -0.193110
v 0.170875 0.329972 -0.474160
v -0.040120 0.539696 -0.463954
v 0.023627 0.456401 -0.517273
v 0.001050 0.432845 -0.539845
v -0.463720 0.428007 0.118784
v -0.502680 0.374284 0.046185
v -0.085976 0.665679 0.451268
v -0.082093 0.638345 0.517707
v 0.002701 0.642005 0.543314
v 0.048084 0.526218 0.632544
v -0.020241 0.474069 0.629932
v 0.384985 0.484262 0.026426
v -0.189388 0.174900 -0.592445
v -0.338144 0.065191 -0.499175
v -0.243929 -0.015057 -0.590044
v -0.546164 0.226716 0.055264
v -0.022847 0.236066 0.645460
v -0.033226 0.105453 0.653526
v -0.028625 0.041377 0.648583
v -0.544017 -0.298067 -0.077190
v 0.548864 0.045626 -0.117600
v 0.596235 -0.243160 -0.196439
v 0.115416 -0.354789 -0.424649
v -0.103462 -0.576267 -0.034510
v -0.220696 -0.376687 0.521599
v 0.438230 -0.424900 -0.208486
v 0.426557 -0.515784 -0.025565
v 0.435919 -0.524322 0.022764
v 0.177514 -0.591896 0.156399
v 0.144145 -0.631361 0.130126
v -0.266466 -0.523342 0.008069
v -0.266466 -0.523342 0.008069
v -0.266466 -0.523342 0.008069
v -0.071445 -0.591033 0.002867
v -0.071445 -0.591033 0.002867
v -0.114843 -0.230543 0.612061
v -0.114843 -0.230543 0.612061
v -0.160476 -0.370709 0.604391
v -0.160476 -0.370709 0.604391
v 0.226200 0.679821 -0.097439
v 0.226200 0.679821 -0.097439
v 0.226200 0.679821 -0.097439
v 0.086939 0.583360 -0.272955
v 0.086939 0.583360 -0.272955
v 0.400854 0.414600 -0.193110
v 0.400854 0.414600 -0.193110
v 0.170875 0.329972 -0.474160
v 0.170875 0.329972 -0.474160
v 0.023627 0.456401 -0.517273
v 0.023627 0.456401 -0.517273
v 0.005642 0.529670 -0.461245
v 0.005642 0.529670 -0.461245
v -0.040120 0.539696 -0.463954
v -0.040120 0.539696 -0.463954
v -0.040120 0.539696 -0.463954
v 0.001050 0.432845 -0.539845
v 0.001050 0.432845 -0.539845
v 0.001050 0.432845 -0.539845
v -0.463720 0.428007 0.118784
v -0.463720 0.428007 0.118784
v -0.463720 0.428007 0.118784
v -0.353926 0.474524 0.228931
v -0.353926 0.474524 0.228931
v -0.338144 0.065191 -0.499175
v -0.338144 0.065191 -0.499175
v -0.502680 0.374284 0.046185
v -0.502680 0.374284 0.046185
v -0.546164 0.226716 0.055264
v -0.546164 0.226716 0.055264
v -0.085976 0.665679 0.451268
v -0.085976 0.665679 0.451268
v 0.114020 0.695820 0.253622
v 0.114020 0.695820 0.253622
v -0.082093 0.638345 0.517707
v -0.082093 0.638345 0.517707
v -0.082093 0.638345 0.517707
v 0.002701 0.642005 0.543314
v 0.002701 0.642005 0.543314
v 0.048084 0.526218 0.632544
v 0.048084 0.526218 0.632544
v 0.048084 0.526218 0.632544
v 0.048084 0.526218 0.632544
v -0.020241 0.474069 0.629932
v -0.020241 0.474069 0.629932
v 0.384985 0.484262 0.026426
v 0.384985 0.484262 0.026426
v 0.548864 0.045626 -0.117600
v 0.548864 0.045626 -0.117600
v 0.596235 -0.243160 -0.196439
v 0.596235 -0.243160 -0.196439
v 0.596235 -0.243160 -0.196439
v -0.189388 0.174900 -0.592445
v -0.189388 0.174900 -0.592445
v -0.243929 -0.015057 -0.590044
v -0.243929 -0.015057 -0.590044
v -0.243929 -0.015057 -0.590044
v -0.405378 -0.069287 -0.409348
v -0.405378 -0.069287 -0.409348
v -0.586133 -0.176879 0.084947
v -0.586133 -0.176879 0.084947
v -0.022847 0.236066 0.645460
v -0.022847 0.236066 0.645460
v -0.033226 0.105453 0.653526
v -0.033226 0.105453 0.653526
v -0.028625 0.041377 0.648583
v -0.028625 0.041377 0.648583
v 0.387526 -0.080879 0.362733
v 0.387526 -0.080879 0.362733
v 0.115416 -0.354789 -0.424649
v 0.115416 -0.354789 -0.424649
v -0.544017 -0.298067 -0.077190
v -0.544017 -0.298067 -0.077190
v 0.526578 -0.376944 0.054715
v 0.526578 -0.376944 0.054715
v -0.103462 -0.576267 -0.034510
v -0.103462 -0.576267 -0.034510
v -0.220696 -0.376687 0.521599
v -0.220696 -0.376687 0.521599
v 0.435919 -0.524322 0.022764
v 0.435919 -0.524322 0.022764
v 0.438230 -0.424900 -0.208486
v 0.438230 -0.424900 -0.208486
v 0.426557 -0.515784 -0.025565
v 0.426557 -0.515784 -0.025565
v 0.426557 -0.515784 -0.025565
v 0.177514 -0.591896 0.156399
v 0.177514 -0.591896 0.156399
v 0.144145 -0.631361 0.130126
v 0.144145 -0.631361 0.130126
v 0.144145 -0.631361 0.130126
vn -0.1449 -0.0864 0.9857
vn 0.2201 0.9089 -0.3542
vn -0.9163 0.2871 0.2792
vn -0.7074 0.6381 0.3039
vn -0.6741 0.0434 -0.7373
vn 0.7531 0.2268 -0.6175
vn 0.8874 0.4540 -0.0799
vn -0.3887 -0.6913 -0.6091
vn 0.8961 0.2044 0.3939
vn 0.1626 0.6172 -0.7698
vn -0.7452 0.1086 0.6579
vn -0.0882 0.0658 0.9939
vn 0.5331 -0.7325 0.4232
vn -0.9251 0.1321 -0.3560
vn -0.6825 0.5303 -0.5029
vn 0.5216 -0.4399 0.7310
vn 0.4288 -0.1344 -0.8933
vn 0.5373 0.6007 -0.5920
vn -0.3287 -0.9401 -0.0898
vn -0.6755 -0.6842 0.2749
vn 0.7307 0.6045 0.3171
vn -0.3715 0.9177 -0.1406
vn -0.3201 -0.9039 0.2836
vn 0.5372 -0.0566 0.8415
vn 0.0226 0.9732 0.2286
vn 0.1069 -0.8886 -0.4460
vn 0.1497 -0.9683 -0.2000
vn -0.3223 0.4683 0.8227
vn 0.4000 -0.1175 -0.9089
vn 0.7963 -0.5820 -0.1650
usemtl Rock_2
s 1
f 465//86 533//86 532//86
f 479//87 481//87 472//87
f 495//88 496//88 489//88
f 491//89 503//89 499//89
f 525//90 493//90 521//90 522//90
f 517//91 476//91 474//91 515//91
f 516//92 473//92 469//92 513//92
f 537//93 543//93 460//93 539//93 526//93 524//93
f 509//94 535//94 541//94 518//94 449//94 514//94
f 478//95 484//95 482//95 480//95
f 531//96 529//96 511//96 504//96 490//96 487//96 497//96 527//96 545//96 466//96 464//96
f 530//97 508//97 512//97
f 555//98 556//98 553//98
f 444//99 494//99 492//99 422//99 540//99 528//99
f 483//100 485//100 520//100 442//100 434//100 488//100
f 534//101 418//101 467//101 558//101 554//101 547//101 542//101 536//101
f 441//102 486//102 523//102
f 468//103 428//103 475//103 477//103 426//103 471//103
f 462//104 459//104 544//104
f 421//105 448//105 461//105 546//105
f 501//106 506//106 507//106 440//106 470//106
f 430//107 433//107 425//107 498//107 500//107 424//107 427//107
f 419//108 453//108 416//108 463//108 557//108
f 438//109 445//109 446//109 447//109 420//109
f 505//110 423//110 435//110 502//110
f 417//111 452//111 538//111 550//111 551//111 458//111
f 548//112 457//112 552//112
f 436//113 439//113 510//113 437//113
f 519//114 549//114 451//114 443//114 432//114 431//114 429//114
f 415//115 456//115 455//115 454//115 450//115
