# Blender v2.79 (sub 0) OBJ File: 'Cliff.blend'
# www.blender.org
mtllib Cliff.mtl
o Cube
v 3.790086 0.036760 0.002661
v -1.973078 5.480615 -2.367453
v 2.199719 2.323361 0.002907
v 3.397568 1.714246 -0.013083
v -1.884984 1.516296 -2.294043
v 3.869513 0.570120 0.015318
v -2.308191 0.829123 2.291067
v 2.894399 4.268157 0.017432
v 4.629658 4.980050 0.042013
v -1.947888 5.491248 2.515220
v 4.493752 5.610567 -1.178313
v -2.383406 0.029820 2.563508
v 4.493752 5.610567 1.185283
v -1.673732 2.555204 -2.020911
v -1.837653 1.644057 2.207295
v -2.208077 4.609039 2.512323
v -2.207660 4.571949 -2.523082
v 2.278415 3.631486 0.023158
v -2.275875 0.900851 -2.333075
v -2.384127 0.026460 -2.608121
v 0.986176 4.898382 -1.218689
v -2.202170 3.368439 2.436259
v -2.219608 3.445857 -2.480042
v -1.694261 2.593914 1.965592
v 0.396363 4.864181 1.412249
vn 0.0014 -1.0000 0.0006
vn 0.9775 0.2107 0.0000
vn -0.8514 -0.5245 -0.0052
vn 0.3862 0.1603 -0.9084
vn 0.3425 0.2741 0.8986
vn -0.9999 0.0106 -0.0002
vn 0.3950 -0.1939 -0.8980
vn 0.3820 -0.0787 0.9208
vn 0.3563 0.7164 -0.5998
vn -0.8659 0.5002 0.0017
vn 0.3820 0.1801 0.9064
vn 0.4757 -0.0422 0.8786
vn -0.8359 -0.5488 0.0010
vn 0.4500 -0.4423 -0.7758
vn 0.3616 0.6948 0.6217
vn 0.4867 -0.0158 -0.8734
vn 0.4474 -0.1782 0.8764
vn -0.9592 0.2829 -0.0022
vn 0.3962 -0.1199 0.9103
vn 0.1824 -0.8516 0.4914
vn -0.0185 0.9998 0.0000
vn -0.0197 0.9998 -0.0021
vn 0.1621 -0.6693 0.7251
vn -0.9684 0.2492 0.0045
vn -0.8439 0.5364 -0.0064
vn 0.3937 -0.3444 0.8523
vn -0.9940 0.1090 -0.0024
vn 0.4435 -0.0389 -0.8954
vn -1.0000 -0.0050 0.0035
vn 0.3600 0.1256 -0.9245
vn 0.2425 -0.4564 -0.8561
vn 0.3233 -0.5422 -0.7756
vn 0.1811 -0.8654 -0.4673
vn -0.9845 0.1756 -0.0003
vn 0.3402 -0.1003 0.9350
vn 0.4214 -0.2529 0.8709
vn 0.3826 0.1732 0.9075
vn 0.4473 -0.1777 -0.8765
vn 0.3578 0.2396 -0.9025
vn 0.3893 -0.0361 -0.9204
vn 0.2524 -0.6402 0.7256
usemtl Material
s off
f 1//1 12//1 20//1
f 9//2 11//2 13//2
f 23//3 14//3 22//3
f 4//4 5//4 14//4
f 6//5 7//5 12//5
f 16//6 17//6 23//6
f 19//7 5//7 4//7
f 1//8 6//8 12//8
f 3//9 4//9 14//9
f 15//10 19//10 7//10
f 4//11 15//11 6//11
f 18//12 22//12 3//12
f 22//13 14//13 24//13
f 18//14 23//14 8//14
f 3//15 24//15 4//15
f 18//16 3//16 23//16
f 16//17 22//17 18//17 8//17
f 10//18 17//18 16//18
f 25//19 10//19 16//19
f 9//20 13//20 25//20
f 13//21 11//21 10//21
f 11//22 2//22 10//22
f 25//23 13//23 10//23
f 17//24 10//24 2//24
f 15//25 5//25 19//25
f 8//26 25//26 16//26
f 20//27 12//27 7//27 19//27
f 8//28 23//28 17//28
f 22//29 16//29 23//29
f 4//30 6//30 19//30
f 2//31 11//31 21//31 17//31
f 21//32 9//32 8//32 17//32
f 9//33 21//33 11//33
f 14//34 5//34 15//34 24//34
f 6//35 15//35 7//35
f 3//36 22//36 24//36
f 4//37 24//37 15//37
f 23//38 3//38 14//38
f 6//39 20//39 19//39
f 1//40 20//40 6//40
f 8//41 9//41 25//41
