# Blender v2.79 (sub 0) OBJ File: 'Platform.blend'
# www.blender.org
mtllib Platform.mtl
o LowPolyRock
v 2.864175 2.470706 -3.090377
v 2.790786 2.345559 -3.709293
v 0.503968 2.469156 -0.251150
v -3.851499 2.063623 0.000396
v -1.318760 2.468223 -5.815855
v -5.987436 2.410034 -1.524846
v -1.550212 2.481815 -1.596358
v 2.292944 2.403112 -4.492852
v 1.983561 2.196606 -4.828145
v 0.213387 2.459008 -5.873713
v 0.856853 2.088421 -5.624458
v -4.664768 2.383235 -5.649667
v -6.344686 2.367069 -4.068751
v -6.517862 2.257390 -2.314711
v -6.170972 2.355568 -1.503459
v -3.941791 2.270907 -0.007535
v 2.395174 2.068903 -1.631905
v 2.606624 2.252648 -1.912224
v 2.910798 2.357027 -2.680950
v -6.193639 2.326037 -4.486956
v -6.164480 2.127376 -4.393845
v -6.060789 2.244483 -1.384367
v -5.514608 2.208129 -0.963194
v -0.082416 2.281241 0.050633
v 2.936836 2.236495 -3.271815
v 2.906065 2.215746 -2.522288
v 2.929399 2.134537 -3.038803
v -1.553807 1.531582 -5.770947
v -1.982908 1.127364 -5.151202
v -5.755183 1.526396 -4.005086
v -5.185347 1.276037 -1.972447
v -1.687772 1.570167 -0.126375
v 2.864175 2.470706 -3.090377
v 2.864175 2.470706 -3.090377
v 2.910798 2.357027 -2.680950
v 2.910798 2.357027 -2.680950
v 2.606624 2.252648 -1.912224
v 2.606624 2.252648 -1.912224
v 2.395174 2.068903 -1.631905
v 2.395174 2.068903 -1.631905
v 2.395174 2.068903 -1.631905
v 2.790786 2.345559 -3.709293
v 2.790786 2.345559 -3.709293
v -6.344686 2.367069 -4.068751
v -6.344686 2.367069 -4.068751
v -5.987436 2.410034 -1.524846
v -5.987436 2.410034 -1.524846
v -1.550212 2.481815 -1.596358
v -1.550212 2.481815 -1.596358
v 0.503968 2.469156 -0.251150
v 0.503968 2.469156 -0.251150
v 2.292944 2.403112 -4.492852
v 2.292944 2.403112 -4.492852
v 0.213387 2.459008 -5.873713
v 0.213387 2.459008 -5.873713
v -1.318760 2.468223 -5.815855
v 1.983561 2.196606 -4.828145
v 1.983561 2.196606 -4.828145
v 0.856853 2.088421 -5.624458
v 0.856853 2.088421 -5.624458
v -6.193639 2.326037 -4.486956
v -6.193639 2.326037 -4.486956
v -6.517862 2.257390 -2.314711
v -6.517862 2.257390 -2.314711
v -6.517862 2.257390 -2.314711
v -6.170972 2.355568 -1.503459
v -6.170972 2.355568 -1.503459
v -6.164480 2.127376 -4.393845
v -6.164480 2.127376 -4.393845
v -3.851499 2.063623 0.000396
v -3.851499 2.063623 0.000396
v -3.941791 2.270907 -0.007535
v -3.941791 2.270907 -0.007535
v -5.514608 2.208129 -0.963194
v -5.514608 2.208129 -0.963194
v -0.082416 2.281241 0.050633
v -0.082416 2.281241 0.050633
v -4.664768 2.383235 -5.649667
v -4.664768 2.383235 -5.649667
v -1.553807 1.531582 -5.770947
v -1.553807 1.531582 -5.770947
v -5.755183 1.526396 -4.005086
v -5.755183 1.526396 -4.005086
v -6.060789 2.244483 -1.384367
v -6.060789 2.244483 -1.384367
v -6.060789 2.244483 -1.384367
v -1.687772 1.570167 -0.126375
v -1.687772 1.570167 -0.126375
v 2.906065 2.215746 -2.522288
v 2.906065 2.215746 -2.522288
v 2.906065 2.215746 -2.522288
v 2.936836 2.236495 -3.271815
v 2.936836 2.236495 -3.271815
v 2.936836 2.236495 -3.271815
v 2.929399 2.134537 -3.038803
v 2.929399 2.134537 -3.038803
v -1.982908 1.127364 -5.151202
v -1.982908 1.127364 -5.151202
v -5.185347 1.276037 -1.972447
v -5.185347 1.276037 -1.972447
vn 0.5896 -0.0006 0.8077
vn -0.8282 -0.3911 0.4014
vn 0.7236 -0.5211 -0.4527
vn -0.2840 -0.7433 -0.6056
vn -0.0023 -0.1152 -0.9933
vn 0.5084 0.4074 -0.7586
vn -0.6660 -0.7416 0.0805
vn 0.0697 0.9960 0.0556
vn 0.9213 0.3723 -0.1117
vn 0.9990 0.0168 0.0415
vn 0.2724 -0.9330 -0.2350
vn -0.0439 0.9865 0.1574
vn -0.2705 -0.8210 0.5027
vn 0.8455 -0.3112 0.4338
vn 0.1765 -0.5682 0.8037
vn -0.0077 0.9999 -0.0121
vn -0.3111 0.9500 0.0253
vn 0.0809 -0.9955 0.0486
vn -0.5046 -0.1875 0.8427
vn -0.8753 -0.4611 -0.1452
usemtl Material.001
s 1
f 39//1 37//1 51//1 76//1
f 85//2 66//2 63//2
f 57//3 52//3 43//3 92//3
f 80//4 97//4 82//4 69//4 62//4 79//4
f 81//5 78//5 56//5 54//5 60//5
f 55//6 53//6 58//6 59//6
f 68//7 83//7 99//7 86//7 65//7
f 50//8 38//8 89//8 35//8 33//8 49//8
f 36//9 93//9 42//9 34//9
f 95//10 94//10 19//10 90//10
f 11//11 9//11 25//11 96//11 98//11 28//11
f 77//12 3//12 48//12 47//12 67//12 84//12 74//12 73//12
f 71//13 75//13 22//13 100//13 87//13
f 18//14 40//14 91//14
f 41//15 24//15 72//15 70//15 88//15
f 44//16 46//16 7//16 1//16 2//16 8//16 10//16 5//16 12//16 61//16
f 15//17 6//17 45//17 64//17
f 27//18 26//18 17//18 32//18 31//18 30//18 29//18
f 23//19 4//19 16//19
f 21//20 14//20 13//20 20//20
