# Blender v2.79 (sub 0) OBJ File: ''
# www.blender.org
mtllib Rock 1.mtl
o LowPolyRock
v 0.526578 -0.376944 0.054715
v -0.266466 -0.523342 0.008069
v -0.071445 -0.591033 0.002867
v -0.114843 -0.230543 0.612061
v -0.160476 -0.370709 0.604391
v 0.387526 -0.080879 0.362733
v -0.586133 -0.176879 0.084947
v -0.405378 -0.069287 -0.409348
v 0.114020 0.695820 0.253622
v 0.226200 0.679821 -0.097439
v -0.353926 0.474524 0.228931
v 0.005642 0.529670 -0.461245
v 0.086939 0.583360 -0.272955
v 0.400854 0.414600 -0.193110
v 0.170875 0.329972 -0.474160
v -0.040120 0.539696 -0.463954
v 0.023627 0.456401 -0.517273
v 0.001050 0.432845 -0.539845
v -0.463720 0.428007 0.118784
v -0.502680 0.374284 0.046185
v -0.085976 0.665679 0.451268
v -0.082093 0.638345 0.517707
v 0.002701 0.642005 0.543314
v 0.048084 0.526218 0.632544
v -0.020241 0.474069 0.629932
v 0.384985 0.484262 0.026426
v -0.189388 0.174900 -0.592445
v -0.338144 0.065191 -0.499175
v -0.243929 -0.015057 -0.590044
v -0.546164 0.226716 0.055264
v -0.022847 0.236066 0.645460
v -0.033226 0.105453 0.653526
v -0.028625 0.041377 0.648583
v -0.544017 -0.298067 -0.077190
v 0.548864 0.045626 -0.117600
v 0.596235 -0.243160 -0.196439
v 0.115416 -0.354789 -0.424649
v -0.103462 -0.576267 -0.034510
v -0.220696 -0.376687 0.521599
v 0.438230 -0.424900 -0.208486
v 0.426557 -0.515784 -0.025565
v 0.435919 -0.524322 0.022764
v 0.177514 -0.591896 0.156399
v 0.144145 -0.631361 0.130126
v -0.266466 -0.523342 0.008069
v -0.266466 -0.523342 0.008069
v -0.266466 -0.523342 0.008069
v -0.071445 -0.591033 0.002867
v -0.071445 -0.591033 0.002867
v -0.114843 -0.230543 0.612061
v -0.114843 -0.230543 0.612061
v -0.160476 -0.370709 0.604391
v -0.160476 -0.370709 0.604391
v 0.226200 0.679821 -0.097439
v 0.226200 0.679821 -0.097439
v 0.226200 0.679821 -0.097439
v 0.086939 0.583360 -0.272955
v 0.086939 0.583360 -0.272955
v 0.400854 0.414600 -0.193110
v 0.400854 0.414600 -0.193110
v 0.170875 0.329972 -0.474160
v 0.170875 0.329972 -0.474160
v 0.023627 0.456401 -0.517273
v 0.023627 0.456401 -0.517273
v 0.005642 0.529670 -0.461245
v 0.005642 0.529670 -0.461245
v -0.040120 0.539696 -0.463954
v -0.040120 0.539696 -0.463954
v -0.040120 0.539696 -0.463954
v 0.001050 0.432845 -0.539845
v 0.001050 0.432845 -0.539845
v 0.001050 0.432845 -0.539845
v -0.463720 0.428007 0.118784
v -0.463720 0.428007 0.118784
v -0.463720 0.428007 0.118784
v -0.353926 0.474524 0.228931
v -0.353926 0.474524 0.228931
v -0.338144 0.065191 -0.499175
v -0.338144 0.065191 -0.499175
v -0.502680 0.374284 0.046185
v -0.502680 0.374284 0.046185
v -0.546164 0.226716 0.055264
v -0.546164 0.226716 0.055264
v -0.085976 0.665679 0.451268
v -0.085976 0.665679 0.451268
v 0.114020 0.695820 0.253622
v 0.114020 0.695820 0.253622
v -0.082093 0.638345 0.517707
v -0.082093 0.638345 0.517707
v -0.082093 0.638345 0.517707
v 0.002701 0.642005 0.543314
v 0.002701 0.642005 0.543314
v 0.048084 0.526218 0.632544
v 0.048084 0.526218 0.632544
v 0.048084 0.526218 0.632544
v 0.048084 0.526218 0.632544
v -0.020241 0.474069 0.629932
v -0.020241 0.474069 0.629932
v 0.384985 0.484262 0.026426
v 0.384985 0.484262 0.026426
v 0.548864 0.045626 -0.117600
v 0.548864 0.045626 -0.117600
v 0.596235 -0.243160 -0.196439
v 0.596235 -0.243160 -0.196439
v 0.596235 -0.243160 -0.196439
v -0.189388 0.174900 -0.592445
v -0.189388 0.174900 -0.592445
v -0.243929 -0.015057 -0.590044
v -0.243929 -0.015057 -0.590044
v -0.243929 -0.015057 -0.590044
v -0.405378 -0.069287 -0.409348
v -0.405378 -0.069287 -0.409348
v -0.586133 -0.176879 0.084947
v -0.586133 -0.176879 0.084947
v -0.022847 0.236066 0.645460
v -0.022847 0.236066 0.645460
v -0.033226 0.105453 0.653526
v -0.033226 0.105453 0.653526
v -0.028625 0.041377 0.648583
v -0.028625 0.041377 0.648583
v 0.387526 -0.080879 0.362733
v 0.387526 -0.080879 0.362733
v 0.115416 -0.354789 -0.424649
v 0.115416 -0.354789 -0.424649
v -0.544017 -0.298067 -0.077190
v -0.544017 -0.298067 -0.077190
v 0.526578 -0.376944 0.054715
v 0.526578 -0.376944 0.054715
v -0.103462 -0.576267 -0.034510
v -0.103462 -0.576267 -0.034510
v -0.220696 -0.376687 0.521599
v -0.220696 -0.376687 0.521599
v 0.435919 -0.524322 0.022764
v 0.435919 -0.524322 0.022764
v 0.438230 -0.424900 -0.208486
v 0.438230 -0.424900 -0.208486
v 0.426557 -0.515784 -0.025565
v 0.426557 -0.515784 -0.025565
v 0.426557 -0.515784 -0.025565
v 0.177514 -0.591896 0.156399
v 0.177514 -0.591896 0.156399
v 0.144145 -0.631361 0.130126
v 0.144145 -0.631361 0.130126
v 0.144145 -0.631361 0.130126
vn -0.1449 -0.0864 0.9857
vn 0.2201 0.9089 -0.3542
vn -0.9163 0.2871 0.2792
vn -0.7074 0.6381 0.3039
vn -0.6741 0.0434 -0.7373
vn 0.7531 0.2268 -0.6175
vn 0.8874 0.4540 -0.0799
vn -0.3887 -0.6913 -0.6091
vn 0.8961 0.2044 0.3939
vn 0.1626 0.6172 -0.7698
vn -0.7452 0.1086 0.6579
vn -0.0882 0.0658 0.9939
vn 0.5331 -0.7325 0.4232
vn -0.9251 0.1321 -0.3560
vn -0.6825 0.5303 -0.5029
vn 0.5216 -0.4399 0.7310
vn 0.4288 -0.1344 -0.8933
vn 0.5373 0.6007 -0.5920
vn -0.3287 -0.9401 -0.0898
vn -0.6755 -0.6842 0.2749
vn 0.7307 0.6045 0.3171
vn -0.3715 0.9177 -0.1406
vn -0.3201 -0.9039 0.2836
vn 0.5372 -0.0566 0.8415
vn 0.0226 0.9732 0.2286
vn 0.1069 -0.8886 -0.4460
vn 0.1497 -0.9683 -0.2000
vn -0.3223 0.4683 0.8227
vn 0.4000 -0.1175 -0.9089
vn 0.7963 -0.5820 -0.1650
usemtl Rock_2
s 1
f 51//1 119//1 118//1
f 65//2 67//2 58//2
f 81//3 82//3 75//3
f 77//4 89//4 85//4
f 111//5 79//5 107//5 108//5
f 103//6 62//6 60//6 101//6
f 102//7 59//7 55//7 99//7
f 123//8 129//8 46//8 125//8 112//8 110//8
f 95//9 121//9 127//9 104//9 35//9 100//9
f 64//10 70//10 68//10 66//10
f 117//11 115//11 97//11 90//11 76//11 73//11 83//11 113//11 131//11 52//11 50//11
f 116//12 94//12 98//12
f 141//13 142//13 139//13
f 30//14 80//14 78//14 8//14 126//14 114//14
f 69//15 71//15 106//15 28//15 20//15 74//15
f 120//16 4//16 53//16 144//16 140//16 133//16 128//16 122//16
f 27//17 72//17 109//17
f 54//18 14//18 61//18 63//18 12//18 57//18
f 48//19 45//19 130//19
f 7//20 34//20 47//20 132//20
f 87//21 92//21 93//21 26//21 56//21
f 16//22 19//22 11//22 84//22 86//22 10//22 13//22
f 5//23 39//23 2//23 49//23 143//23
f 24//24 31//24 32//24 33//24 6//24
f 91//25 9//25 21//25 88//25
f 3//26 38//26 124//26 136//26 137//26 44//26
f 134//27 43//27 138//27
f 22//28 25//28 96//28 23//28
f 105//29 135//29 37//29 29//29 18//29 17//29 15//29
f 1//30 42//30 41//30 40//30 36//30
