# Blender v2.79 (sub 0) OBJ File: 'Rocks.blend'
# www.blender.org
mtllib Rock 2.mtl
o LowPolyRock.002
v -1.770718 -0.518816 -0.294903
v -2.139597 0.014587 0.318823
v -2.225163 0.180316 -0.225041
v -1.042790 0.422003 0.051750
v -1.594099 0.683159 -0.114761
v -1.796006 0.647897 0.004498
v -1.126071 0.542097 -0.220528
v -1.102797 0.477780 -0.201226
v -1.160188 0.411485 -0.284405
v -1.733742 0.512186 0.202181
v -2.066306 0.628646 -0.152637
v -2.093211 0.614823 -0.245736
v -2.187750 0.506674 -0.083843
v -2.227717 0.486770 -0.217933
v -2.227399 0.518142 -0.182473
v -1.795528 0.416116 0.278669
v -2.331717 -0.299456 0.023200
v -1.131376 0.098629 0.536180
v -1.073101 0.363596 0.264490
v -1.040973 0.160928 0.362406
v -1.028991 0.373612 0.173352
v -1.032455 0.051466 0.233637
v -1.385185 -0.012135 -0.589777
v -1.414488 -0.064346 -0.574159
v -1.380142 -0.176083 -0.528185
v -2.301165 -0.346939 -0.243583
v -2.361283 -0.323127 -0.086086
v -2.255608 -0.399506 -0.254368
v -2.295535 -0.378720 -0.123751
v -2.275136 -0.292328 0.375170
v -2.067036 -0.379604 0.495438
v -1.940033 -0.446071 0.548300
v -2.261503 -0.324136 0.190546
v -1.248385 -0.059817 0.583609
v -1.185790 -0.358061 -0.006749
v -1.732727 -0.386878 -0.476069
v -1.927222 -0.474259 -0.426976
v -1.965308 -0.485307 -0.383935
v -2.026253 -0.442133 0.438563
v -1.981404 -0.476285 0.526060
v -1.686279 -0.556347 0.389595
v -1.481081 -0.627112 0.352440
v -1.469428 -0.655338 0.303654
v -1.429497 -0.633040 0.316902
v -1.594099 0.683159 -0.114761
v -1.594099 0.683159 -0.114761
v -1.796006 0.647897 0.004498
v -1.796006 0.647897 0.004498
v -1.042790 0.422003 0.051750
v -1.126071 0.542097 -0.220528
v -1.126071 0.542097 -0.220528
v -1.126071 0.542097 -0.220528
v -1.102797 0.477780 -0.201226
v -1.102797 0.477780 -0.201226
v -1.160188 0.411485 -0.284405
v -1.160188 0.411485 -0.284405
v -1.733742 0.512186 0.202181
v -1.733742 0.512186 0.202181
v -2.093211 0.614823 -0.245736
v -2.093211 0.614823 -0.245736
v -2.093211 0.614823 -0.245736
v -2.093211 0.614823 -0.245736
v -2.066306 0.628646 -0.152637
v -2.066306 0.628646 -0.152637
v -1.385185 -0.012135 -0.589777
v -1.385185 -0.012135 -0.589777
v -1.385185 -0.012135 -0.589777
v -2.227717 0.486770 -0.217933
v -2.227717 0.486770 -0.217933
v -2.227399 0.518142 -0.182473
v -2.227399 0.518142 -0.182473
v -2.187750 0.506674 -0.083843
v -2.187750 0.506674 -0.083843
v -1.795528 0.416116 0.278669
v -1.795528 0.416116 0.278669
v -1.028991 0.373612 0.173352
v -1.028991 0.373612 0.173352
v -2.225163 0.180316 -0.225041
v -2.225163 0.180316 -0.225041
v -2.361283 -0.323127 -0.086086
v -2.361283 -0.323127 -0.086086
v -2.361283 -0.323127 -0.086086
v -2.331717 -0.299456 0.023200
v -2.331717 -0.299456 0.023200
v -2.139597 0.014587 0.318823
v -2.139597 0.014587 0.318823
v -1.131376 0.098629 0.536180
v -1.131376 0.098629 0.536180
v -1.131376 0.098629 0.536180
v -1.040973 0.160928 0.362406
v -1.040973 0.160928 0.362406
v -1.032455 0.051466 0.233637
v -1.032455 0.051466 0.233637
v -1.073101 0.363596 0.264490
v -1.073101 0.363596 0.264490
v -1.414488 -0.064346 -0.574159
v -1.414488 -0.064346 -0.574159
v -1.380142 -0.176083 -0.528185
v -1.380142 -0.176083 -0.528185
v -1.380142 -0.176083 -0.528185
v -1.732727 -0.386878 -0.476069
v -1.732727 -0.386878 -0.476069
v -2.301165 -0.346939 -0.243583
v -2.301165 -0.346939 -0.243583
v -2.301165 -0.346939 -0.243583
v -2.255608 -0.399506 -0.254368
v -2.255608 -0.399506 -0.254368
v -2.295535 -0.378720 -0.123751
v -2.295535 -0.378720 -0.123751
v -1.927222 -0.474259 -0.426976
v -1.927222 -0.474259 -0.426976
v -1.927222 -0.474259 -0.426976
v -2.275136 -0.292328 0.375170
v -2.275136 -0.292328 0.375170
v -2.275136 -0.292328 0.375170
v -2.275136 -0.292328 0.375170
v -2.067036 -0.379604 0.495438
v -2.067036 -0.379604 0.495438
v -2.261503 -0.324136 0.190546
v -2.261503 -0.324136 0.190546
v -2.026253 -0.442133 0.438563
v -2.026253 -0.442133 0.438563
v -1.981404 -0.476285 0.526060
v -1.981404 -0.476285 0.526060
v -1.981404 -0.476285 0.526060
v -1.248385 -0.059817 0.583609
v -1.248385 -0.059817 0.583609
v -1.940033 -0.446071 0.548300
v -1.940033 -0.446071 0.548300
v -1.185790 -0.358061 -0.006749
v -1.185790 -0.358061 -0.006749
v -1.770718 -0.518816 -0.294903
v -1.770718 -0.518816 -0.294903
v -1.965308 -0.485307 -0.383935
v -1.965308 -0.485307 -0.383935
v -1.686279 -0.556347 0.389595
v -1.686279 -0.556347 0.389595
v -1.469428 -0.655338 0.303654
v -1.469428 -0.655338 0.303654
v -1.429497 -0.633040 0.316902
v -1.429497 -0.633040 0.316902
v -1.429497 -0.633040 0.316902
v -1.481081 -0.627112 0.352440
v -1.481081 -0.627112 0.352440
vn -0.9510 0.2338 0.2023
vn 0.7811 0.0976 -0.6167
vn 0.2412 0.8778 0.4138
vn -0.3716 0.0832 -0.9246
vn 0.2031 -0.4895 0.8480
vn -0.6488 0.5728 -0.5009
vn -0.1151 0.9933 0.0054
vn -0.9168 0.1452 -0.3719
vn -0.5446 -0.7303 0.4124
vn -0.5409 -0.8346 0.1039
vn 0.0790 0.5701 -0.8177
vn -0.6487 -0.7250 0.2313
vn 0.8363 -0.4462 0.3187
vn 0.4160 -0.8025 -0.4276
vn -0.7213 -0.6771 -0.1457
vn -0.4943 -0.4386 -0.7505
vn 0.1203 -0.3459 -0.9305
vn 0.0638 0.6817 0.7288
vn -0.4606 0.6052 0.6493
vn -0.7630 -0.6298 0.1453
vn -0.5791 0.7925 0.1913
vn -0.2414 0.3352 0.9106
vn 0.9094 -0.1697 -0.3798
vn -0.0374 -0.9594 -0.2794
vn 0.7858 0.3656 0.4988
vn 0.1343 -0.7001 0.7013
vn 0.0771 -0.3590 -0.9301
vn 0.2727 -0.8031 0.5298
vn -0.3399 -0.9399 0.0329
vn 0.9900 -0.0257 -0.1390
usemtl Rock_1
s 1
f 72//1 70//1 68//1 78//1 80//1 83//1 114//1 85//1
f 53//2 55//2 51//2
f 45//3 47//3 57//3 95//3 76//3 49//3 50//3
f 69//4 60//4 65//4 96//4 101//4 110//4 104//4 79//4
f 127//5 128//5 136//5 143//5 141//5
f 14//6 71//6 61//6
f 48//7 46//7 59//7 63//7
f 103//8 81//8 3//8
f 117//9 113//9 121//9
f 119//10 115//10 84//10
f 66//11 62//11 5//11 52//11 56//11
f 109//12 120//12 17//12 82//12
f 130//13 93//13 90//13 87//13 126//13 142//13
f 102//14 99//14 131//14 140//14 138//14 132//14 111//14
f 108//15 27//15 105//15 106//15
f 135//16 107//16 26//16 112//16
f 98//17 97//17 67//17
f 74//18 88//18 94//18 58//18
f 73//19 86//19 75//19 10//19 6//19 64//19
f 122//20 123//20 118//20
f 15//21 13//21 11//21 12//21
f 2//22 116//22 31//22 124//22 129//22 34//22 89//22 16//22
f 54//23 92//23 35//23 100//23 23//23 9//23
f 133//24 134//24 37//24
f 91//25 77//25 19//25 18//25
f 137//26 32//26 125//26
f 25//27 36//27 24//27
f 139//28 44//28 144//28
f 40//29 39//29 30//29 33//29 29//29 28//29 38//29 1//29 43//29 42//29 41//29
f 22//30 8//30 7//30 4//30 21//30 20//30
