# Blender v2.79 (sub 0) OBJ File: 'Curved Form.blend'
# www.blender.org
mtllib paper.mtl
o paper_Cube
v 1.587166 0.268077 -0.993659
v 1.546304 0.276612 0.962629
v -1.554533 0.245983 1.000000
v -1.554533 0.272149 -1.000000
v 1.587174 0.281944 -0.993649
v 1.545364 0.303497 0.960153
v -1.554533 0.274545 1.000000
v -1.554533 0.294097 -1.000000
v 1.598868 0.159721 -0.349187
v 1.575482 0.165974 0.371109
v 0.536645 0.145110 -1.000000
v -0.508944 0.148044 -1.000000
v 1.587169 0.272103 -0.993654
v 1.587172 0.275466 -0.993651
v 0.536645 0.160594 1.000000
v -0.508944 0.119455 1.000000
v 1.545977 0.282884 0.961780
v 1.545713 0.288779 0.961092
v -1.554533 0.099986 0.333333
v -1.554533 0.114158 -0.333334
v -1.554533 0.253415 1.000000
v -1.554533 0.259947 1.000000
v -1.554533 0.278560 -1.000000
v -1.554533 0.283830 -1.000000
v 1.598978 0.180756 -0.346353
v 1.575390 0.185110 0.366496
v 0.536646 0.170933 -1.000000
v -0.508944 0.174945 -1.000000
v 0.536645 0.184395 1.000000
v -0.508944 0.145364 1.000000
v -1.554533 0.123103 0.333333
v -1.554533 0.137374 -0.333333
v 0.536645 0.156483 -1.000000
v -0.508944 0.159979 -1.000000
v 0.536645 0.150940 -1.000000
v -0.508944 0.154180 -1.000000
v -1.554533 0.104635 0.333333
v -1.554533 0.118985 -0.333334
v -1.554533 0.109301 0.333333
v -1.554533 0.123751 -0.333334
v 0.536645 0.166340 1.000000
v -0.508944 0.125078 1.000000
v 0.536645 0.171609 1.000000
v -0.508944 0.130523 1.000000
v 1.598881 0.164065 -0.349046
v 1.575450 0.170190 0.370107
v 1.598899 0.168370 -0.348676
v 1.575425 0.174248 0.369155
v 0.535308 0.093999 -0.323447
v 0.536645 0.081214 0.333334
v -0.508944 0.066585 -0.333333
v -0.508944 0.073899 0.333333
v 0.535201 0.070620 -0.322662
v -0.508944 0.042621 -0.333334
v 0.536645 0.056289 0.333333
v -0.508944 0.049455 0.333333
vn -0.0833 -0.9837 0.1594
vn 0.0838 0.9828 -0.1643
vn 0.9987 0.0215 0.0461
vn 0.0000 0.0000 1.0000
vn -1.0000 0.0000 -0.0000
vn 0.0000 0.0000 -1.0000
vn 0.0060 0.0001 -1.0000
vn 0.0060 0.0004 -1.0000
vn 0.0060 0.0005 -1.0000
vn -1.0000 -0.0001 0.0000
vn 0.0291 0.0711 0.9970
vn 0.0309 0.0623 0.9976
vn 0.0349 0.0345 0.9988
vn 0.9983 0.0415 0.0416
vn 0.9984 0.0361 0.0430
vn 0.9998 -0.0016 -0.0184
vn 0.9995 0.0055 0.0325
vn 0.9998 -0.0018 -0.0185
vn 0.9995 0.0031 0.0326
vn 0.9998 -0.0020 -0.0185
vn 0.9995 -0.0014 0.0329
vn -0.1072 0.9788 -0.1746
vn -0.0220 0.9913 -0.1298
vn -0.0913 0.9868 0.1335
vn -0.0903 0.9959 0.0047
vn -0.0117 0.9906 0.1366
vn -0.0166 0.9999 0.0041
vn 0.0887 0.9769 0.1942
vn 0.0573 0.9983 0.0052
vn -0.0914 -0.9769 -0.1930
vn -0.0583 -0.9983 -0.0055
vn 0.0976 -0.9857 -0.1371
vn 0.0126 -0.9911 -0.1327
vn 0.0941 -0.9955 -0.0043
vn 0.0167 -0.9998 -0.0057
vn 0.1079 -0.9795 0.1698
vn 0.0227 -0.9913 0.1296
usemtl Material
s off
f 56//1 16//1 3//1 19//1
f 52//2 31//2 7//2 30//2
f 48//3 26//3 6//3 18//3
f 44//4 30//4 7//4 22//4
f 40//5 32//5 8//5 24//5
f 36//6 12//6 4//6 23//6
f 28//6 34//6 24//6 8//6
f 34//6 36//6 23//6 24//6
f 5//7 14//7 33//7 27//7
f 27//6 33//6 34//6 28//6
f 14//8 13//8 35//8 33//8
f 33//6 35//6 36//6 34//6
f 13//9 1//9 11//9 35//9
f 35//6 11//6 12//6 36//6
f 20//5 38//5 23//5 4//5
f 38//5 40//5 24//5 23//5
f 3//5 21//5 37//5 19//5
f 19//5 37//5 38//5 20//5
f 21//10 22//10 39//10 37//10
f 37//5 39//5 40//5 38//5
f 22//5 7//5 31//5 39//5
f 39//5 31//5 32//5 40//5
f 16//4 42//4 21//4 3//4
f 42//4 44//4 22//4 21//4
f 2//11 17//11 41//11 15//11
f 15//4 41//4 42//4 16//4
f 17//12 18//12 43//12 41//12
f 41//4 43//4 44//4 42//4
f 18//13 6//13 29//13 43//13
f 43//4 29//4 30//4 44//4
f 10//14 46//14 17//14 2//14
f 46//15 48//15 18//15 17//15
f 1//16 13//16 45//16 9//16
f 9//17 45//17 46//17 10//17
f 13//18 14//18 47//18 45//18
f 45//19 47//19 48//19 46//19
f 14//20 5//20 25//20 47//20
f 47//21 25//21 26//21 48//21
f 26//22 50//22 29//22 6//22
f 50//23 52//23 30//23 29//23
f 5//24 27//24 49//24 25//24
f 25//25 49//25 50//25 26//25
f 27//26 28//26 51//26 49//26
f 49//27 51//27 52//27 50//27
f 28//28 8//28 32//28 51//28
f 51//29 32//29 31//29 52//29
f 12//30 54//30 20//30 4//30
f 54//31 56//31 19//31 20//31
f 1//32 9//32 53//32 11//32
f 11//33 53//33 54//33 12//33
f 9//34 10//34 55//34 53//34
f 53//35 55//35 56//35 54//35
f 10//36 2//36 15//36 55//36
f 55//37 15//37 16//37 56//37
